<?xml version="1.0" encoding="UTF-8"?>
<svg id="Capa_1" xmlns="http://www.w3.org/2000/svg" version="1.1" viewBox="0 0 24 24">
  <!-- Generator: Adobe Illustrator 29.6.0, SVG Export Plug-In . SVG Version: 2.1.1 Build 207)  -->
  <defs>
    <style>
      .st0 {
        fill: #fff;
      }

      .st1 {
        fill: #46166a;
      }
    </style>
  </defs>
  <circle class="st1" cx="12" cy="12" r="12"/>
  <path class="st0" d="M18.6,11.08c.03-.09.06-.18.08-.28.23-.88.1-1.79-.37-2.57-.37-.63-.93-1.12-1.6-1.4-.2-1.31-1.33-2.31-2.69-2.31h0c-.73,0-1.41.29-1.92.8-.04.04-.07.09-.11.14-.5-.57-1.22-.94-2.03-.94-.71,0-1.41.28-1.92.79-.42.42-.69.95-.77,1.52-.67.28-1.22.76-1.6,1.4-.46.78-.59,1.69-.37,2.57.02.09.05.19.08.28-.48.53-.78,1.2-.85,1.92-.09.9.17,1.79.74,2.49.18.22.38.41.6.58,0,1.68,1.25,3.14,2.96,3.37.15.02.3.03.44.03.75,0,1.47-.24,2.07-.71.25-.19.46-.43.64-.68.18.25.39.48.64.68.6.46,1.32.71,2.07.71.15,0,.29,0,.44-.03,1.71-.22,2.96-1.69,2.96-3.37.22-.17.42-.36.6-.58,1.07-1.31.99-3.19-.11-4.41ZM11.3,16.33c-.07.54-.35,1.02-.78,1.35-.43.33-.97.48-1.5.41-.8-.1-1.43-.67-1.67-1.39.19.03.38.06.57.06.38,0,.68-.3.68-.68s-.3-.68-.68-.68c-.35,0-.7-.09-1-.26,0,0,0,0,0,0-.22-.13-.42-.29-.58-.49-.34-.42-.5-.95-.45-1.49.06-.54.32-1.03.74-1.37,0,0,0,0,0,0,.09-.08.19-.14.3-.2.33-.18.45-.59.27-.92-.12-.22-.36-.34-.6-.34-.08-.48,0-.96.24-1.39.15-.26.36-.47.6-.64.04.11.1.22.15.32.13.22.35.34.59.34.11,0,.23-.03.34-.09.32-.19.44-.6.25-.93-.11-.19-.17-.4-.18-.62h0s0-.07,0-.07c0-.36.14-.7.4-.96.26-.25.6-.39.96-.39h0c.75,0,1.36.61,1.35,1.36h0v2.69c-.06.96-.68,1.79-1.58,2.11-.35.12-.54.51-.42.87.12.35.51.54.87.42.42-.15.8-.37,1.13-.65v3.4c0,.09,0,.17-.02.26ZM17.66,14.64c-.16.2-.36.36-.58.49,0,0,0,0,0,0-.3.17-.65.26-1,.26-.38,0-.68.3-.68.68s.3.68.68.68c.19,0,.38-.02.57-.06-.07.22-.17.43-.32.62-.33.43-.81.71-1.35.78-.54.07-1.07-.07-1.5-.41-.43-.33-.71-.81-.78-1.35-.01-.08-.02-.17-.02-.26v-3.4c.33.27.71.5,1.13.65.07.03.15.04.23.04.28,0,.54-.17.64-.45.12-.35-.06-.74-.42-.87-.91-.32-1.53-1.15-1.58-2.11v-2.68h0c0-.37.14-.71.39-.97.26-.26.6-.4.96-.4h0c.75,0,1.36.61,1.36,1.35v.07s0,0,0,0c0,.22-.07.43-.18.62-.19.32-.08.74.25.93.11.06.22.09.34.09.23,0,.46-.12.59-.34.06-.1.11-.21.16-.32.24.17.45.38.6.64.25.42.33.91.24,1.39-.24,0-.47.12-.6.34-.18.33-.06.74.26.92.11.06.2.13.3.2,0,0,0,0,0,0,.87.71,1,1.99.3,2.86Z"/>
</svg>